{"title":"The Double 2014 HDRip XviD-VAiN","uid":10170664,"size":1449269016,"categoryP":"video","categoryS":"movies","magnet":"?xt=urn:btih:30bb0ae9efc9e382381d069981a75306d622fdd9&amp;dn=The+Double+2014+HDRip+XviD-VAiN&amp;tr=udp%3A%2F%2Ftracker.openbittorrent.com%3A80&amp;tr=udp%3A%2F%2Fopen.demonii.com%3A1337&amp;tr=udp%3A%2F%2Ftracker.coppersurfer.tk%3A6969&amp;tr=udp%3A%2F%2Fexodus.desync.com%3A6969","seeders":1,"leechers":0,"uploader":"Xetron","files":4,"time":1400406251,"description":" &lt;a href=&quot;http://i.imgur.com/eR4HHke.jpg&quot; rel=&quot;nofollow&quot; target=&quot;_NEW&quot;&gt;http://i.imgur.com/eR4HHke.jpg&lt;/a&gt;\n\nVAiN . P R E S E N T S\n\nThe.Double.2014.HDRip.XviD-VAiN\n\niMDB: A clerk in a government agency finds his unenviable life takes a turn for the horrific with the arrival of a new co-worker who is both his exact physical double and his opposite - confident, charismatic and seductive with women\n\nT E C H N i C A L . i N F O\nGeneral\nFormat: AVI\nFormat/Info: Audio Video Interleave\nFile size: 1.33 GiB\nDuration: 1h 32mn\nOverall bit rate: 2 059 Kbps\nWriting application: VirtualDubMod 1.5.10.2 (build 2540/release)\nWriting library: VirtualDubMod build 2540/release\n\nVideo\nID: 0\nFormat: MPEG-4 Visual\nFormat profile: Advanced Simple@L5\nFormat settings, BVOP: 1\nFormat settings, QPel: No\nFormat settings, GMC: No warppoints\nFormat settings, Matrix: Default (MPEG)\nCodec ID: XVID\nCodec ID/Hint: XviD\nDuration: 1h 32mn\nBit rate: 1 857 Kbps\nWidth: 720 pixels\nHeight: 400 pixels\nDisplay aspect ratio: 16:9\nFrame rate: 25.000 fps\nColor space: YUV\nChroma subsampling: 4:2:0\nBit depth: 8 bits\nScan type: Progressive\nCompression mode: Lossy\nBits/(Pixel*Frame): 0.258\nStream size: 1.20 GiB (90%)\nWriting library: XviD 1.2.1 (UTC 2008-12-04)\n\nAudio\nID: 1\nFormat: MPEG Audio\nFormat version: Version 1\nFormat profile: Layer 3\nMode: Joint stereo\nCodec ID: 55\nCodec ID/Hint: MP3\nDuration: 1h 32mn\nBit rate mode: Constant\nBit rate: 192 Kbps\nChannel(s): 2 channels\nSampling rate: 48.0 KHz\nCompression mode: Lossy\nStream size: 127 MiB (9%)\nAlignment: Aligned on interleaves\nInterleave, duration: 40 ms (1.00 video frame)\nInterleave, preload duration: 504 ms\nWriting library: LAME3.99r\nEncoding settings: -m j -V 4 -q 2 -lowpass 18.6 -b 192\n\nE N C O D E R S . N O T E S\n\nSOURCE: That\nSAMPLE: Yes\nADDED NOTE: \n\ncheers and njoy'! or don't\n\nS C R E E N . S H O T S \n &lt;a href=&quot;\nhttp://i.imgur.com/id6FkZM.png&quot; rel=&quot;nofollow&quot; target=&quot;_NEW&quot;&gt;\nhttp://i.imgur.com/id6FkZM.png&lt;/a&gt; &lt;a href=&quot;\nhttp://i.imgur.com/oYb59c3.png&quot; rel=&quot;nofollow&quot; target=&quot;_NEW&quot;&gt;\nhttp://i.imgur.com/oYb59c3.png&lt;/a&gt; &lt;a href=&quot;\nhttp://i.imgur.com/ytad5qy.png&quot; rel=&quot;nofollow&quot; target=&quot;_NEW&quot;&gt;\nhttp://i.imgur.com/ytad5qy.png&lt;/a&gt; &lt;a href=&quot;\nhttp://i.imgur.com/oV6q1sW.png&quot; rel=&quot;nofollow&quot; target=&quot;_NEW&quot;&gt;\nhttp://i.imgur.com/oV6q1sW.png&lt;/a&gt; &lt;a href=&quot;\nhttp://i.imgur.com/Jnfezny.png&quot; rel=&quot;nofollow&quot; target=&quot;_NEW&quot;&gt;\nhttp://i.imgur.com/Jnfezny.png&lt;/a&gt; &lt;a href=&quot;\nhttp://i.imgur.com/N7jO4R3.png&quot; rel=&quot;nofollow&quot; target=&quot;_NEW&quot;&gt;\nhttp://i.imgur.com/N7jO4R3.png&lt;/a&gt;","torrent":{"xt":"urn:btih:30bb0ae9efc9e382381d069981a75306d622fdd9","amp;dn":"The+Double+2014+HDRip+XviD-VAiN","amp;tr":["udp%3A%2F%2Ftracker.openbittorrent.com%3A80","udp%3A%2F%2Fopen.demonii.com%3A1337","udp%3A%2F%2Ftracker.coppersurfer.tk%3A6969","udp%3A%2F%2Fexodus.desync.com%3A6969"],"infoHash":"30bb0ae9efc9e382381d069981a75306d622fdd9","infoHashBuffer":{"type":"Buffer","data":[48,187,10,233,239,201,227,130,56,29,6,153,129,167,83,6,214,34,253,217]},"announce":[],"urlList":[]}}